<svg xmlns="http://www.w3.org/2000/svg" width="22" height="22" viewBox="0 0 22 22">
    <g fill="none" fill-rule="nonzero">
        <path fill="#B3B3B3" d="M.831 3.585L10.932.053l10.152 3.532-1.603 13.155-8.523 4.71-8.54-4.71z"/>
        <path fill="#A5120D" d="M10.933 1.15v19.132l7.584-4.193 1.438-11.8z"/>
        <path fill="#DC1B16" d="M10.933 1.15v19.132L3.35 16.089 1.91 4.29z"/>
        <path fill="#FFF" d="M9.105 10.93l1.83-4.347 1.83 4.348c-2.894.006-2.088.007-3.66 0zm1.83-8.804L4.728 15.91h2.28l1.31-3.11h5.235l1.31 3.11h2.28L10.935 2.126z"/>
        <path fill="#B3B2B2" d="M10.935 2.126v4.458l1.83 4.347-1.83.004V12.8h2.618l1.31 3.11h2.28L10.935 2.126z"/>
    </g>
</svg>
