<svg xmlns="http://www.w3.org/2000/svg" width="20" height="22" viewBox="0 0 20 22">
    <g fill="none" fill-rule="nonzero">
        <path fill="#264DE4" d="M19.782 0l-1.72 19.646-7.734 2.185-7.711-2.182L.898 0z"/>
        <path fill="#2965F1" d="M16.589 18.395l1.47-16.788H10.34V20.16z"/>
        <path fill="#EBEBEB" d="M4.838 8.894l.212 2.41h5.29v-2.41zM10.34 4.016H4.412l.215 2.41h5.713zM10.34 17.66v-2.507l-.01.002-2.633-.724-.169-1.922H5.155l.331 3.783 4.843 1.37z"/>
        <path fill="#FFF" d="M13.243 11.304l-.274 3.125-2.637.726v2.507l4.846-1.37.036-.407.555-6.344.058-.647.427-4.878h-5.922v2.41h3.331l-.215 2.468h-3.116v2.41z"/>
    </g>
</svg>
